<svg width="18" height="18" viewBox="0 0 18 18" fill="none" xmlns="http://www.w3.org/2000/svg">
<path d="M15.5326 14.4675L12.9826 11.925C13.8054 10.8768 14.2518 9.58249 14.2501 8.25C14.2501 7.06332 13.8982 5.90328 13.2389 4.91658C12.5797 3.92989 11.6426 3.16085 10.5462 2.70673C9.44987 2.2526 8.24347 2.13378 7.07958 2.36529C5.9157 2.5968 4.8466 3.16825 4.00748 4.00736C3.16837 4.84648 2.59692 5.91558 2.36541 7.07946C2.1339 8.24335 2.25272 9.44975 2.70685 10.5461C3.16097 11.6425 3.93001 12.5795 4.9167 13.2388C5.9034 13.8981 7.06344 14.25 8.25012 14.25C9.58261 14.2517 10.877 13.8052 11.9251 12.9825L14.4676 15.5325C14.5373 15.6028 14.6203 15.6586 14.7117 15.6967C14.8031 15.7347 14.9011 15.7544 15.0001 15.7544C15.0991 15.7544 15.1972 15.7347 15.2886 15.6967C15.3799 15.6586 15.4629 15.6028 15.5326 15.5325C15.6029 15.4628 15.6587 15.3798 15.6968 15.2884C15.7349 15.197 15.7545 15.099 15.7545 15C15.7545 14.901 15.7349 14.803 15.6968 14.7116C15.6587 14.6202 15.6029 14.5372 15.5326 14.4675ZM3.75012 8.25C3.75012 7.35999 4.01404 6.48996 4.50851 5.74994C5.00298 5.00992 5.70578 4.43314 6.52805 4.09254C7.35032 3.75195 8.25512 3.66284 9.12803 3.83647C10.0009 4.0101 10.8028 4.43869 11.4321 5.06802C12.0614 5.69736 12.49 6.49918 12.6637 7.3721C12.8373 8.24501 12.7482 9.14981 12.4076 9.97208C12.067 10.7943 11.4902 11.4972 10.7502 11.9916C10.0102 12.4861 9.14014 12.75 8.25012 12.75C7.05665 12.75 5.91206 12.2759 5.06814 11.432C4.22423 10.5881 3.75012 9.44348 3.75012 8.25Z" fill="#A5A5A5"/>
</svg>
