<?xml version="1.0" encoding="UTF-8"?>
<svg width="46px" height="36px" viewBox="0 0 46 36" version="1.1" xmlns="http://www.w3.org/2000/svg" xmlns:xlink="http://www.w3.org/1999/xlink">
    <title>4737438_equalizer_filter_filtering_mixer_sorting_icon</title>
    <g id="Page-1" stroke="none" stroke-width="1" fill="none" fill-rule="evenodd">
        <g id="4737438_equalizer_filter_filtering_mixer_sorting_icon" fill="#2958FF" fill-rule="nonzero">
            <path d="M46,6 C46,4.8954305 45.1045695,4 44,4 L23,4 C21.8954305,4 21,4.8954305 21,6 C21,7.1045695 21.8954305,8 23,8 L44,8 C45.1045695,8 46,7.1045695 46,6 Z" id="Path"></path>
            <path d="M2,8 L7.35,8 C8.3240726,10.7550934 11.1413325,12.4077442 14.0214661,11.9135914 C16.9015998,11.4194385 19.0068542,8.92221781 19.0068542,6 C19.0068542,3.07778219 16.9015998,0.580561456 14.0214661,0.0864086421 C11.1413325,-0.407744171 8.3240726,1.24490663 7.35,4 L2,4 C0.8954305,4 0,4.8954305 0,6 C0,7.1045695 0.8954305,8 2,8 Z M13,4 C14.1045695,4 15,4.8954305 15,6 C15,7.1045695 14.1045695,8 13,8 C11.8954305,8 11,7.1045695 11,6 C11,4.8954305 11.8954305,4 13,4 Z" id="Shape"></path>
            <path d="M44,16 L36.65,16 C35.6759274,13.2449066 32.8586675,11.5922558 29.9785339,12.0864086 C27.0984002,12.5805615 24.9931458,15.0777822 24.9931458,18 C24.9931458,20.9222178 27.0984002,23.4194385 29.9785339,23.9135914 C32.8586675,24.4077442 35.6759274,22.7550934 36.65,20 L44,20 C45.1045695,20 46,19.1045695 46,18 C46,16.8954305 45.1045695,16 44,16 Z M31,20 C29.8954305,20 29,19.1045695 29,18 C29,16.8954305 29.8954305,16 31,16 C32.1045695,16 33,16.8954305 33,18 C33,19.1045695 32.1045695,20 31,20 Z" id="Shape"></path>
            <path d="M21,16 L2,16 C0.8954305,16 0,16.8954305 0,18 C0,19.1045695 0.8954305,20 2,20 L21,20 C22.1045695,20 23,19.1045695 23,18 C23,16.8954305 22.1045695,16 21,16 Z" id="Path"></path>
            <path d="M44,28 L27,28 C25.8954305,28 25,28.8954305 25,30 C25,31.1045695 25.8954305,32 27,32 L44,32 C45.1045695,32 46,31.1045695 46,30 C46,28.8954305 45.1045695,28 44,28 Z" id="Path"></path>
            <path d="M17,23.999996 C14.459818,24.0029024 12.1967262,25.6050913 11.35,27.999996 L2,27.999996 C0.8954305,27.999996 0,28.8954305 0,29.999996 C0,31.1045695 0.8954305,31.999996 2,31.999996 L11.35,31.999996 C12.3673884,34.8776026 15.3829292,36.5328781 18.3568299,35.846154 C21.3307307,35.1594298 23.3151955,32.3495681 22.9678793,29.3172345 C22.6205631,26.2849008 20.0521572,23.996514 17,23.999996 L17,23.999996 Z M17,32 C15.8954305,32 15,31.1045695 15,30 C15,28.8954305 15.8954305,28 17,28 C18.1045695,28 19,28.8954305 19,30 C19,31.1045695 18.1045695,32 17,32 Z" id="Shape"></path>
        </g>
    </g>
</svg>